<svg width="75" height="75" viewBox="0 0 147 157" fill="none" xmlns="http://www.w3.org/2000/svg">
<path d="M124 139C124 148.941 115.941 157 106 157L94 157L94 56.9999L106 56.9999C115.941 56.9999 124 65.0588 124 74.9999L124 139Z" fill="#B2BFCD"/>
<path d="M106 57C115.941 57 124 65.0589 124 75L124 87L60 87L60 57L106 57Z" fill="#B2BFCD"/>
<path d="M16 57L16 87L-3.57667e-07 87L6.03983e-07 65C7.97112e-07 60.5817 3.58172 57 8 57L16 57Z" fill="#B2BFCD"/>
<path d="M23.0001 18C23.0001 8.05887 31.059 0 41.0001 0H53.0001V157H41.0001C31.059 157 23.0001 148.941 23.0001 139V18Z" fill="#B2BFCD"/>
</svg>
