<svg width="150" height="150" viewBox="0 0 224 219" fill="none" xmlns="http://www.w3.org/2000/svg">
<path d="M22.9688 219H18.9062V207.797C18.9062 207.266 18.7708 206.865 18.5 206.594C18.2292 206.312 17.8229 206.172 17.2812 206.172H9.95312V202.109H17.2812C17.6667 202.109 18.0729 202.156 18.5 202.25C18.9271 202.333 19.349 202.469 19.7656 202.656C20.1927 202.844 20.599 203.089 20.9844 203.391C21.3698 203.682 21.7083 204.042 22 204.469C22.2917 204.885 22.526 205.37 22.7031 205.922C22.8802 206.474 22.9688 207.099 22.9688 207.797V219ZM8.3125 219H4.25V194.969H8.3125V219ZM52.125 213.406C52.125 213.969 52.026 214.578 51.8281 215.234C51.6302 215.88 51.3073 216.484 50.8594 217.047C50.4219 217.599 49.8438 218.062 49.125 218.438C48.4167 218.812 47.5521 219 46.5312 219H39.2031C38.6406 219 38.0312 218.901 37.375 218.703C36.7292 218.505 36.125 218.188 35.5625 217.75C35.0104 217.302 34.5469 216.724 34.1719 216.016C33.7969 215.297 33.6094 214.427 33.6094 213.406C33.6094 212.844 33.7083 212.234 33.9062 211.578C34.1042 210.922 34.4219 210.318 34.8594 209.766C35.3073 209.203 35.8854 208.734 36.5938 208.359C37.3125 207.984 38.1823 207.797 39.2031 207.797H46.5312V211.672H39.2031C38.651 211.672 38.224 211.844 37.9219 212.188C37.6198 212.521 37.4688 212.938 37.4688 213.438C37.4688 213.969 37.6406 214.385 37.9844 214.688C38.3385 214.979 38.7552 215.125 39.2344 215.125H46.5312C47.0833 215.125 47.5104 214.958 47.8125 214.625C48.1146 214.292 48.2656 213.875 48.2656 213.375V207.703C48.2656 207.172 48.099 206.75 47.7656 206.438C47.4427 206.125 47.0312 205.969 46.5312 205.969H37.6094V202.109H46.5312C47.0938 202.109 47.6979 202.208 48.3438 202.406C49 202.604 49.6042 202.927 50.1562 203.375C50.7188 203.812 51.1875 204.391 51.5625 205.109C51.9375 205.818 52.125 206.682 52.125 207.703V213.406ZM82.2188 213.297C82.2188 213.682 82.1719 214.089 82.0781 214.516C81.9948 214.943 81.8594 215.37 81.6719 215.797C81.4844 216.214 81.2396 216.615 80.9375 217C80.6458 217.385 80.2865 217.729 79.8594 218.031C79.4427 218.323 78.9583 218.557 78.4062 218.734C77.8542 218.911 77.2292 219 76.5312 219H69.2031C68.8177 219 68.4115 218.958 67.9844 218.875C67.5573 218.781 67.1302 218.641 66.7031 218.453C66.2865 218.266 65.8854 218.026 65.5 217.734C65.1146 217.432 64.7708 217.073 64.4688 216.656C64.1771 216.229 63.9427 215.74 63.7656 215.188C63.5885 214.625 63.5 213.995 63.5 213.297V194.969H67.5625V213.297C67.5625 213.797 67.7188 214.198 68.0312 214.5C68.3438 214.792 68.7344 214.938 69.2031 214.938H76.5312C77.0417 214.938 77.4375 214.786 77.7188 214.484C78.0104 214.182 78.1562 213.786 78.1562 213.297V207.797C78.1562 207.286 78.0052 206.891 77.7031 206.609C77.401 206.318 77.0104 206.172 76.5312 206.172H69.2031V202.109H76.5312C76.9167 202.109 77.3229 202.156 77.75 202.25C78.1771 202.333 78.599 202.469 79.0156 202.656C79.4427 202.844 79.849 203.089 80.2344 203.391C80.6198 203.682 80.9583 204.042 81.25 204.469C81.5417 204.885 81.776 205.37 81.9531 205.922C82.1302 206.474 82.2188 207.099 82.2188 207.797V213.297ZM101.109 219H99.2969C98.7135 219 98.0885 218.901 97.4219 218.703C96.7656 218.505 96.151 218.182 95.5781 217.734C95.0052 217.276 94.5312 216.688 94.1562 215.969C93.7812 215.24 93.5938 214.349 93.5938 213.297V194.969H97.6562V213.297C97.6562 213.797 97.8125 214.198 98.125 214.5C98.4375 214.792 98.8281 214.938 99.2969 214.938H101.109V219ZM129.156 213.406C129.156 213.969 129.057 214.578 128.859 215.234C128.661 215.88 128.339 216.484 127.891 217.047C127.453 217.599 126.875 218.062 126.156 218.438C125.448 218.812 124.583 219 123.562 219H116.234C115.672 219 115.062 218.901 114.406 218.703C113.76 218.505 113.156 218.188 112.594 217.75C112.042 217.302 111.578 216.724 111.203 216.016C110.828 215.297 110.641 214.427 110.641 213.406C110.641 212.844 110.74 212.234 110.938 211.578C111.135 210.922 111.453 210.318 111.891 209.766C112.339 209.203 112.917 208.734 113.625 208.359C114.344 207.984 115.214 207.797 116.234 207.797H123.562V211.672H116.234C115.682 211.672 115.255 211.844 114.953 212.188C114.651 212.521 114.5 212.938 114.5 213.438C114.5 213.969 114.672 214.385 115.016 214.688C115.37 214.979 115.786 215.125 116.266 215.125H123.562C124.115 215.125 124.542 214.958 124.844 214.625C125.146 214.292 125.297 213.875 125.297 213.375V207.703C125.297 207.172 125.13 206.75 124.797 206.438C124.474 206.125 124.062 205.969 123.562 205.969H114.641V202.109H123.562C124.125 202.109 124.729 202.208 125.375 202.406C126.031 202.604 126.635 202.927 127.188 203.375C127.75 203.812 128.219 204.391 128.594 205.109C128.969 205.818 129.156 206.682 129.156 207.703V213.406ZM155.703 219H151.641V207.797C151.641 207.266 151.5 206.865 151.219 206.594C150.938 206.312 150.521 206.172 149.969 206.172H144.688V219H140.625V204.125C140.625 203.844 140.677 203.583 140.781 203.344C140.885 203.094 141.031 202.88 141.219 202.703C141.406 202.516 141.625 202.37 141.875 202.266C142.125 202.161 142.391 202.109 142.672 202.109H150C150.562 202.109 151.167 202.208 151.812 202.406C152.458 202.604 153.073 202.922 153.656 203.359V202.109H159.156C159.542 202.109 159.948 202.156 160.375 202.25C160.802 202.333 161.224 202.469 161.641 202.656C162.068 202.844 162.474 203.089 162.859 203.391C163.245 203.682 163.583 204.042 163.875 204.469C164.167 204.885 164.401 205.37 164.578 205.922C164.755 206.474 164.844 207.099 164.844 207.797V219H160.781V207.797C160.781 207.266 160.646 206.865 160.375 206.594C160.115 206.312 159.708 206.172 159.156 206.172H155.5C155.635 206.672 155.703 207.214 155.703 207.797V219ZM194.969 213.297C194.969 213.995 194.88 214.625 194.703 215.188C194.526 215.74 194.292 216.229 194 216.656C193.708 217.073 193.37 217.432 192.984 217.734C192.599 218.026 192.193 218.266 191.766 218.453C191.349 218.641 190.922 218.781 190.484 218.875C190.057 218.958 189.651 219 189.266 219H181.938C181.375 219 180.76 218.901 180.094 218.703C179.427 218.505 178.807 218.182 178.234 217.734C177.672 217.276 177.198 216.688 176.812 215.969C176.438 215.24 176.25 214.349 176.25 213.297V207.797C176.25 206.755 176.438 205.875 176.812 205.156C177.198 204.427 177.672 203.839 178.234 203.391C178.807 202.932 179.427 202.604 180.094 202.406C180.76 202.208 181.375 202.109 181.938 202.109H189.266C190.307 202.109 191.193 202.297 191.922 202.672C192.651 203.047 193.24 203.521 193.688 204.094C194.135 204.656 194.458 205.271 194.656 205.938C194.865 206.604 194.969 207.224 194.969 207.797V213.297ZM190.906 207.828C190.906 207.266 190.766 206.849 190.484 206.578C190.203 206.307 189.797 206.172 189.266 206.172H181.969C181.427 206.172 181.016 206.312 180.734 206.594C180.453 206.865 180.312 207.266 180.312 207.797V213.297C180.312 213.828 180.453 214.234 180.734 214.516C181.016 214.797 181.427 214.938 181.969 214.938H189.266C189.818 214.938 190.229 214.797 190.5 214.516C190.771 214.234 190.906 213.828 190.906 213.297V207.828ZM222.766 213.297C222.766 213.995 222.677 214.625 222.5 215.188C222.323 215.74 222.089 216.229 221.797 216.656C221.505 217.073 221.167 217.432 220.781 217.734C220.396 218.026 219.99 218.266 219.562 218.453C219.146 218.641 218.719 218.781 218.281 218.875C217.854 218.958 217.448 219 217.062 219H206.062V214.938H217.031C217.583 214.938 218 214.797 218.281 214.516C218.562 214.234 218.703 213.828 218.703 213.297C218.651 212.214 218.104 211.672 217.062 211.672H210.766C209.87 211.672 209.109 211.516 208.484 211.203C207.859 210.891 207.349 210.5 206.953 210.031C206.568 209.562 206.286 209.057 206.109 208.516C205.943 207.974 205.859 207.469 205.859 207C205.859 206.094 206.021 205.333 206.344 204.719C206.667 204.094 207.073 203.589 207.562 203.203C208.052 202.818 208.583 202.542 209.156 202.375C209.729 202.198 210.266 202.109 210.766 202.109H220.75V206.172H210.797C210.589 206.172 210.422 206.198 210.297 206.25C210.182 206.292 210.094 206.354 210.031 206.438C209.979 206.51 209.948 206.594 209.938 206.688C209.927 206.771 209.922 206.854 209.922 206.938C209.932 207.104 209.964 207.234 210.016 207.328C210.068 207.422 210.13 207.49 210.203 207.531C210.286 207.573 210.375 207.599 210.469 207.609C210.573 207.609 210.672 207.609 210.766 207.609H217.062C218.104 207.609 218.99 207.797 219.719 208.172C220.448 208.547 221.036 209.021 221.484 209.594C221.932 210.156 222.255 210.771 222.453 211.438C222.661 212.104 222.766 212.724 222.766 213.297Z" fill="#B2BFCD"/>
<path d="M3 202L3 206L6.3573e-08 206L1.94707e-07 203C2.18848e-07 202.448 0.447716 202 1 202L3 202Z" fill="#B2BFCD"/>
<path d="M162 139C162 148.941 153.941 157 144 157L132 157L132 56.9999L144 56.9999C153.941 56.9999 162 65.0588 162 74.9999L162 139Z" fill="#B2BFCD"/>
<path d="M144 57C153.941 57 162 65.0589 162 75L162 87L98 87L98 57L144 57Z" fill="#B2BFCD"/>
<path d="M54 57L54 87L38 87L38 65C38 60.5817 41.5817 57 46 57L54 57Z" fill="#B2BFCD"/>
<path d="M61.0001 18C61.0001 8.05887 69.059 0 79.0001 0H91.0001V157H79.0001C69.059 157 61.0001 148.941 61.0001 139V18Z" fill="#B2BFCD"/>
</svg>
